<svg width="544" height="580" viewBox="0 0 544 580" fill="none" xmlns="http://www.w3.org/2000/svg">
<g clip-path="url(#clip0_893_1192)">
<rect width="544" height="580" rx="8" fill="#FFCE00"/>
<path d="M544 136.77H0.0820312V442.933H544V136.77Z" fill="#FFCE00"/>
<path d="M205.544 206.729L203.702 203.221C203.614 203.051 203.371 203.048 203.277 203.212L201.317 206.656C198.903 210.894 195.324 214.348 191.004 216.615L187.496 218.456C187.326 218.544 187.323 218.787 187.487 218.881L190.93 220.842C195.169 223.255 198.623 226.834 200.89 231.154L202.731 234.663C202.819 234.832 203.062 234.835 203.156 234.671L205.116 231.228C207.53 226.99 211.109 223.535 215.429 221.269L218.937 219.427C219.107 219.339 219.11 219.096 218.946 219.003L215.503 217.042C211.264 214.628 207.81 211.049 205.544 206.729Z" fill="white"/>
<path d="M308.266 241.984C308.266 217.805 288.665 198.204 264.487 198.204H161.788C137.61 198.204 118.009 217.805 118.009 241.984C118.009 258.949 127.666 273.65 141.774 280.921C127.666 288.192 118.009 302.893 118.009 319.858C118.009 336.824 127.666 351.525 141.774 358.796C127.666 366.067 118.009 380.767 118.009 397.733C118.009 421.911 137.61 441.512 161.788 441.512H264.487C288.665 441.512 308.266 421.911 308.266 397.733C308.266 380.767 298.609 366.067 284.501 358.796C298.609 351.525 308.266 336.824 308.266 319.858C308.266 302.893 298.609 288.192 284.501 280.921C298.609 273.65 308.266 258.949 308.266 241.984Z" fill="#FF76B7"/>
<path d="M308.266 241.984C308.266 232.644 305.329 223.991 300.35 216.885C285.48 227.648 281.204 249.911 294.301 270.925C294.708 271.57 295.121 272.211 295.545 272.84C303.408 264.924 308.271 254.023 308.271 241.984H308.266Z" fill="#141313"/>
<path d="M202.196 239.687C197.048 239.687 192.856 235.496 192.856 230.347C192.856 229.251 193.745 228.368 194.836 228.368C195.926 228.368 196.815 229.257 196.815 230.347C196.815 233.31 199.228 235.723 202.191 235.723C205.155 235.723 207.568 233.31 207.568 230.347C207.568 229.251 208.457 228.368 209.547 228.368C210.637 228.368 211.526 229.257 211.526 230.347C211.526 235.496 207.335 239.687 202.186 239.687H202.196Z" fill="#141313"/>
<path d="M224.073 239.687C218.924 239.687 214.732 235.496 214.732 230.347C214.732 229.251 215.621 228.368 216.712 228.368C217.802 228.368 218.691 229.257 218.691 230.347C218.691 233.31 221.104 235.723 224.067 235.723C227.031 235.723 229.444 233.31 229.444 230.347C229.444 229.251 230.333 228.368 231.423 228.368C232.513 228.368 233.402 229.257 233.402 230.347C233.402 235.496 229.211 239.687 224.062 239.687H224.073Z" fill="#141313"/>
<path d="M213.135 255.599C197.572 255.599 183.734 245.709 178.701 230.992C178.347 229.955 178.897 228.833 179.934 228.479C180.971 228.124 182.093 228.674 182.448 229.712C186.93 242.83 199.265 251.641 213.135 251.641C227.005 251.641 239.34 242.83 243.823 229.712C244.177 228.674 245.304 228.124 246.336 228.479C247.368 228.833 247.924 229.96 247.569 230.992C242.537 245.709 228.699 255.599 213.135 255.599Z" fill="#141313"/>
<path d="M435.789 540.465L490.655 516.09C492.2 515.402 491.729 513.095 490.036 513.074L294.751 510.423L435.789 540.465Z" fill="#141313"/>
<path d="M191.238 390.155V432.05C191.238 433.94 189.714 435.464 187.824 435.464H144.569C140.939 435.464 137.991 438.411 137.991 442.041V485.038C137.991 486.927 136.467 488.451 134.578 488.451H91.5817C87.9515 488.451 85.0039 491.398 85.0039 495.029V535.12C85.0039 538.75 87.9515 541.697 91.5817 541.697H190.984V541.443H237.906C241.537 541.443 244.484 538.496 244.484 534.866V390.155C244.484 386.525 241.537 383.577 237.906 383.577H197.815C194.185 383.577 191.238 386.525 191.238 390.155Z" fill="#01A552"/>
<path d="M283.591 84.4827C283.575 80.3339 280.194 76.9842 276.05 77.0001L264.81 77.0424V77.053C244.717 77.1324 226.937 87.0281 216.004 102.173L215.935 84.742C215.919 80.5932 212.538 77.2435 208.394 77.2594L197.154 77.3017C163.8 77.4287 136.806 104.618 136.933 137.994C137.06 171.359 164.25 198.342 197.62 198.215L208.86 198.173C213.009 198.157 216.358 194.775 216.342 190.632L216.274 173.211C227.328 188.272 245.178 198.035 265.271 197.956L276.511 197.913C280.659 197.897 284.009 194.516 283.993 190.372L283.586 84.4827H283.591Z" fill="#FF7300"/>
<path d="M216.124 173.005C219.865 178.153 224.4 182.683 229.549 186.425C224.639 178.857 219.617 166.845 216.124 147.778V173.005Z" fill="#141313"/>
<path d="M347.055 182.207C341.53 191.415 331.614 197.733 320.104 198.194C301.604 198.929 286.03 184.102 285.85 165.591C285.749 155.213 290.485 145.857 297.994 139.724C298.291 139.486 298.27 139.026 297.968 138.809C290.046 133.226 284.675 124.219 284.061 113.852C282.966 95.368 297.476 79.5031 315.992 78.958C327.512 78.6246 337.842 84.2445 343.986 93.0502C344.224 93.3941 344.732 93.3783 344.954 93.0131C350.479 83.8053 360.396 77.4869 371.906 77.0265C390.406 76.2909 405.98 91.1186 406.16 109.629C406.26 120.007 401.524 129.363 394.015 135.485C393.719 135.724 393.74 136.184 394.041 136.401C401.958 141.994 407.324 151.001 407.943 161.363C409.038 179.847 394.528 195.712 376.012 196.257C364.492 196.59 354.162 190.97 348.018 182.165C347.78 181.821 347.272 181.837 347.05 182.202H347.055V182.207Z" fill="#0061EE"/>
<path d="M103.98 291.044L106.309 286.784C107.05 285.424 109.008 285.424 109.749 286.784L112.077 291.044C115.236 296.823 119.994 301.58 125.778 304.745L130.037 307.073C131.397 307.814 131.397 309.772 130.037 310.513L125.778 312.841C119.999 316.001 115.242 320.758 112.077 326.542L109.749 330.802C109.008 332.162 107.055 332.162 106.309 330.802L103.98 326.542C100.821 320.763 96.0639 316.006 90.2799 312.841L86.02 310.513C84.66 309.772 84.66 307.819 86.02 307.073L90.2799 304.745C96.0586 301.586 100.816 296.828 103.98 291.044Z" fill="white"/>
<path d="M441.541 131.416L434.9 129.162L432.646 122.521C432.445 121.923 431.598 121.923 431.397 122.521L429.143 129.162L422.501 131.416C421.903 131.617 421.903 132.464 422.501 132.665L429.143 134.919L431.397 141.561C431.598 142.159 432.445 142.159 432.646 141.561L434.9 134.919L441.541 132.665C442.139 132.464 442.139 131.617 441.541 131.416Z" fill="white"/>
<path d="M343.161 297.119C397.461 297.119 441.547 341.206 441.547 395.505V530.934C441.547 536.877 436.721 541.698 430.784 541.698H255.539C249.596 541.698 244.775 536.871 244.775 530.934V395.505C244.775 341.206 288.862 297.119 343.161 297.119Z" fill="#0040E9"/>
<path d="M343.161 297.119C288.825 297.119 244.775 341.169 244.775 395.505V473.184C305.526 478.693 369.652 438.163 399.757 369.856C406.087 355.494 410.489 340.851 413.088 326.299C395.254 308.285 370.515 297.119 343.161 297.119Z" fill="#0061EE"/>
<path d="M280.559 541.697C296.932 529.457 304.668 505.729 298.249 482C290.984 455.134 268.059 437.422 244.775 439.2V530.934C244.775 536.877 249.596 541.697 255.539 541.697H280.559Z" fill="#141313"/>
<path d="M356.018 341.788C351.345 341.788 347.154 338.845 345.587 334.464C345.222 333.437 345.757 332.31 346.783 331.94C347.81 331.569 348.937 332.109 349.308 333.136C350.313 335.951 353.012 337.84 356.023 337.84C359.034 337.84 361.733 335.946 362.738 333.136C363.103 332.109 364.236 331.575 365.262 331.94C366.289 332.305 366.824 333.437 366.458 334.464C364.892 338.845 360.701 341.788 356.028 341.788H356.018Z" fill="#141313"/>
<path d="M330.306 341.825C325.633 341.825 321.437 338.867 319.876 334.464C319.51 333.438 320.045 332.311 321.072 331.945C322.098 331.58 323.225 332.115 323.59 333.141C324.596 335.972 327.295 337.878 330.306 337.878C333.317 337.878 336.016 335.972 337.021 333.141C337.386 332.115 338.513 331.58 339.54 331.945C340.567 332.311 341.101 333.438 340.736 334.464C339.17 338.867 334.979 341.825 330.306 341.825Z" fill="#141313"/>
<path d="M343.208 357.859C334.09 357.859 325.062 355.795 316.892 351.816C315.913 351.34 315.505 350.16 315.981 349.181C316.458 348.202 317.638 347.794 318.617 348.27C327.29 352.488 336.99 354.404 346.674 353.806C354.046 353.351 361.126 351.504 367.714 348.318C368.693 347.842 369.873 348.255 370.35 349.234C370.826 350.212 370.413 351.393 369.434 351.869C362.38 355.282 354.802 357.256 346.917 357.743C345.679 357.817 344.446 357.859 343.208 357.859Z" fill="#141313"/>
<path d="M244.478 541.698C275.417 541.698 300.498 516.617 300.498 485.678C300.498 454.739 275.417 429.659 244.478 429.659C213.54 429.659 188.459 454.739 188.459 485.678C188.459 516.617 213.54 541.698 244.478 541.698Z" fill="#FB5500"/>
<path d="M294.646 460.716C285.47 442.306 266.456 429.653 244.484 429.653C213.543 429.653 188.465 454.737 188.465 485.673C188.465 500.072 193.9 513.201 202.832 523.128C209.844 525.504 217.353 526.79 225.164 526.79C262.413 526.79 292.825 497.516 294.651 460.716H294.646Z" fill="#FF7300"/>
<path d="M234.127 460.372C230.158 460.372 226.597 457.859 225.269 454.123C224.919 453.138 225.433 452.054 226.417 451.704C227.401 451.355 228.486 451.868 228.835 452.853C229.629 455.086 231.757 456.589 234.127 456.589C236.498 456.589 238.625 455.086 239.419 452.853C239.768 451.868 240.853 451.355 241.837 451.704C242.822 452.054 243.335 453.138 242.986 454.123C241.658 457.864 238.096 460.372 234.127 460.372Z" fill="#141313"/>
<path d="M255.347 460.372C251.378 460.372 247.817 457.859 246.488 454.123C246.139 453.138 246.653 452.054 247.637 451.704C248.621 451.355 249.706 451.868 250.055 452.853C250.849 455.086 252.976 456.589 255.347 456.589C257.718 456.589 259.845 455.086 260.639 452.853C260.988 451.868 262.073 451.355 263.057 451.704C264.041 452.054 264.555 453.138 264.206 454.123C262.877 457.864 259.316 460.372 255.347 460.372Z" fill="#141313"/>
<path d="M244.775 473.681C232.212 473.681 220.2 469.003 210.955 460.504C210.187 459.795 210.134 458.599 210.844 457.832C211.553 457.065 212.749 457.012 213.516 457.721C222.062 465.574 233.159 469.897 244.775 469.897C256.39 469.897 267.487 465.574 276.034 457.721C276.801 457.012 278.002 457.065 278.706 457.832C279.415 458.599 279.362 459.801 278.595 460.504C269.35 469.003 257.338 473.681 244.775 473.681Z" fill="#141313"/>
<path d="M345.998 151.594C336.33 151.594 327.206 147.858 320.311 141.084C319.581 140.365 319.57 139.185 320.29 138.454C321.01 137.724 322.19 137.713 322.92 138.433C329.117 144.524 337.309 147.879 345.998 147.879C354.687 147.879 362.879 144.524 369.076 138.433C369.806 137.713 370.986 137.724 371.706 138.454C372.425 139.185 372.415 140.365 371.684 141.084C364.789 147.863 355.666 151.594 345.998 151.594Z" fill="#141313"/>
<path d="M342.622 133.062C341.733 133.062 340.95 132.421 340.791 131.516C340.22 128.193 337.351 125.785 333.975 125.785C330.599 125.785 327.736 128.193 327.159 131.516C326.985 132.527 326.022 133.21 325.011 133.035C324 132.861 323.317 131.898 323.492 130.887C324.376 125.78 328.784 122.071 333.975 122.071C339.167 122.071 343.575 125.78 344.458 130.887C344.633 131.898 343.956 132.861 342.94 133.035C342.834 133.056 342.728 133.062 342.622 133.062Z" fill="#141313"/>
<path d="M349.375 133.062C349.269 133.062 349.164 133.051 349.058 133.035C348.047 132.861 347.364 131.898 347.539 130.887C348.423 125.78 352.831 122.071 358.022 122.071C363.213 122.071 367.622 125.78 368.505 130.887C368.68 131.898 368.003 132.861 366.986 133.035C365.976 133.21 365.013 132.533 364.838 131.516C364.267 128.193 361.398 125.785 358.022 125.785C354.646 125.785 351.783 128.193 351.206 131.516C351.053 132.421 350.264 133.062 349.375 133.062Z" fill="#141313"/>
<path d="M380.886 200.729C357.369 193.669 346.484 212.344 346.484 212.344C346.484 212.344 336.471 193.167 312.669 199.093C288.866 205.031 278.722 232.744 294.819 258.563C307.223 278.392 327.401 290.341 337.847 295.484C342.007 297.543 346.865 297.659 351.114 295.807C361.729 291.14 382.542 280.281 395.872 260.95C413.182 235.93 404.514 207.804 380.891 200.723H380.886V200.729Z" fill="#02863E"/>
<path d="M380.886 200.729C357.369 193.669 346.484 212.344 346.484 212.344C346.484 212.344 336.471 193.167 312.669 199.093C288.866 205.031 278.722 232.744 294.819 258.563C302.609 271.02 313.473 280.365 323.062 286.869C338.001 283.313 353.252 274.073 365.428 259.897C380.722 242.095 387.591 220.668 385.574 202.491C384.087 201.808 382.526 201.21 380.891 200.723H380.886V200.729Z" fill="#01A552"/>
<path d="M452.929 394.881C452.929 394.764 452.94 394.648 452.94 394.531C452.94 382.974 443.573 373.607 432.016 373.607C420.459 373.607 411.092 382.974 411.092 394.531C411.092 394.648 411.097 394.764 411.103 394.881C402.572 396.029 395.989 403.337 395.989 412.185C395.989 421.837 403.811 429.659 413.458 429.659H450.58C460.227 429.659 468.048 421.837 468.048 412.19C468.048 403.337 461.465 396.029 452.935 394.881H452.929Z" fill="white"/>
</g>
<defs>
<clipPath id="clip0_893_1192">
<rect width="544" height="580" rx="8" fill="white"/>
</clipPath>
</defs>
</svg>
